<?xml version="1.0" encoding="iso-8859-1"?>
<!-- Generator: Adobe Illustrator 16.0.0, SVG Export Plug-In . SVG Version: 6.00 Build 0)  -->
<!DOCTYPE svg PUBLIC "-//W3C//DTD SVG 1.1//EN" "http://www.w3.org/Graphics/SVG/1.1/DTD/svg11.dtd">
<svg version="1.1" id="Capa_1" xmlns="http://www.w3.org/2000/svg" xmlns:xlink="http://www.w3.org/1999/xlink" x="0px" y="0px" width="914.4px" height="914.399px" viewBox="0 0 914.4 914.399" style="enable-background:new 0 0 914.4 914.399;" xml:space="preserve">
  <g>
    <g>
      <path d="M57.5,99.2c-19.3,0-35,15.7-35,35v745.2c0,19.301,15.7,35,35,35h799.4c19.3,0,35-15.699,35-35V134.2c0-19.3-15.7-35-35-35
			h-63.7v64.2c0,34.4-28,62.3-62.3,62.3h-40.8c-34.4,0-62.301-28-62.301-62.3V99.2h-341v64.2c0,34.4-28,62.3-62.3,62.3h-40.8
			c-34.4,0-62.3-28-62.3-62.3V99.2H57.5z M124.6,354h665.1v478.3H124.6V354z" />
      <path d="M690,0c-19.3,0-35,15.7-35,35v64.2v64.2c0,19.3,15.7,35,35,35h40.8c19.301,0,35-15.7,35-35V99.2V35
			c0-19.3-15.699-35-35-35H690z" />
      <path d="M183.5,0c-19.3,0-35,15.7-35,35v64.2v64.2c0,19.3,15.7,35,35,35h40.8c19.3,0,35-15.7,35-35V99.2V35c0-19.3-15.7-35-35-35
			H183.5z" />
      <path d="M647.1,526.7c-6.7-52.5-56.301-88.601-106.9-88.601c-9.6,0-19.2,1.3-28.6,4c-22,6.4-40.5,20.2-54.4,37.9
			c-13.9-17.8-32.5-31.601-54.4-37.9c-9.399-2.7-19-4-28.6-4c-50.7,0-100.3,36.101-106.9,88.601c-0.199,1.6-0.399,3.199-0.5,4.8
			C263.4,574.899,286.4,615.8,315.9,645.899c33.399,34.101,75.5,57.7,112.899,86.9c9.5,7.4,20.4,15.1,28.5,24.1
			c8.101-9,19-16.699,28.5-24.1c37.4-29.3,79.4-52.8,112.9-86.9c29.5-30.1,52.5-71,49.1-114.399
			C647.5,529.899,647.299,528.3,647.1,526.7z" />
    </g>
  </g>
  <g>
  </g>
  <g>
  </g>
  <g>
  </g>
  <g>
  </g>
  <g>
  </g>
  <g>
  </g>
  <g>
  </g>
  <g>
  </g>
  <g>
  </g>
  <g>
  </g>
  <g>
  </g>
  <g>
  </g>
  <g>
  </g>
  <g>
  </g>
  <g>
  </g>
</svg>